<?xml version="1.0" encoding="utf-8"?>
<!-- Generator: Adobe Illustrator 19.0.0, SVG Export Plug-In . SVG Version: 6.00 Build 0)  -->
<svg version="1.1" id="Layer_1" xmlns="http://www.w3.org/2000/svg" xmlns:xlink="http://www.w3.org/1999/xlink" x="0px" y="0px"
	 viewBox="0 0 44.6 44.6" style="enable-background:new 0 0 44.6 44.6;" xml:space="preserve">
<style type="text/css">
	.st0{fill:#FFFB3F;}
</style>
<g id="XMLID_69_">
	<circle id="XMLID_67_" class="st0" cx="22.3" cy="22.3" r="12"/>
	<path id="XMLID_68_" class="st0" d="M22.8,0c-0.1,0-0.4,0.5-1.4,3.2C22,4.9,21.8,6,21.5,6.7C21,7.8,20.2,8,20,9.1
		c-0.1,0.8,0.2,1.7,0.9,2.2c1.1,0.8,2.7,0.5,2.8,0s-1.6-0.8-1.7-1.9c-0.2-1.1,1.2-1.4,1.4-2.9c0.2-1.3-0.8-1.6-0.9-3.6
		C22.3,1.3,22.9,0.1,22.8,0z"/>
	<path id="XMLID_70_" class="st0" d="M11.6,2.8c-0.1,0-0.1,0.7,0.3,3.5c1.4,1.2,1.7,2.2,1.8,3c0.1,1.2-0.5,1.8-0.1,2.8
		c0.3,0.7,1,1.4,1.9,1.5c1.3,0.2,2.6-1,2.4-1.4c-0.1-0.5-1.7,0.1-2.5-0.8c-0.7-0.8,0.3-1.8-0.2-3.2c-0.5-1.2-1.5-1-2.6-2.6
		C11.8,4.1,11.7,2.7,11.6,2.8z"/>
	<path id="XMLID_71_" class="st0" d="M3.3,10.7c-0.1,0.1,0.3,0.6,2,2.8c1.8,0.3,2.6,1.1,3.1,1.7c0.7,1,0.5,1.8,1.4,2.5
		c0.6,0.5,1.6,0.7,2.4,0.3c1.2-0.5,1.7-2.1,1.4-2.4c-0.4-0.3-1.5,1-2.5,0.5c-1-0.4-0.6-1.7-1.8-2.7c-1-0.8-1.8-0.1-3.6-1
		C4.1,11.8,3.4,10.6,3.3,10.7z"/>
	<path id="XMLID_72_" class="st0" d="M0,21.8c0,0.1,0.5,0.4,3.2,1.4c1.7-0.6,2.8-0.4,3.5-0.1c1.1,0.5,1.3,1.3,2.4,1.5
		c0.8,0.1,1.7-0.2,2.2-0.9c0.8-1.1,0.5-2.7,0-2.8s-0.8,1.6-1.9,1.7c-1.1,0.2-1.4-1.2-2.9-1.4C5.2,21,4.9,22,2.9,22.1
		C1.3,22.3,0.1,21.7,0,21.8z"/>
	<path id="XMLID_73_" class="st0" d="M2.8,33c0,0.1,0.7,0.1,3.5-0.3c1.2-1.4,2.2-1.7,3-1.8c1.2-0.1,1.8,0.5,2.8,0.1
		c0.7-0.3,1.4-1,1.5-1.9c0.2-1.3-1-2.6-1.4-2.4c-0.5,0.1,0.1,1.7-0.8,2.5c-0.8,0.7-1.8-0.3-3.2,0.2c-1.2,0.5-1,1.5-2.6,2.6
		C4.1,32.8,2.7,32.9,2.8,33z"/>
	<path id="XMLID_74_" class="st0" d="M10.7,41.3c0.1,0.1,0.6-0.3,2.8-2c0.3-1.8,1.1-2.6,1.7-3.1c1-0.7,1.8-0.5,2.5-1.4
		c0.5-0.6,0.7-1.6,0.3-2.4c-0.5-1.2-2.1-1.7-2.4-1.4c-0.3,0.4,1,1.5,0.5,2.5c-0.4,1-1.7,0.6-2.7,1.8c-0.8,1-0.1,1.8-1,3.6
		C11.8,40.5,10.6,41.2,10.7,41.3z"/>
	<path id="XMLID_75_" class="st0" d="M21.8,44.6c0.1,0,0.4-0.5,1.4-3.2c-0.6-1.7-0.4-2.8-0.1-3.5c0.5-1.1,1.3-1.3,1.5-2.4
		c0.1-0.8-0.2-1.7-0.9-2.2c-1.1-0.8-2.7-0.5-2.8,0s1.6,0.8,1.7,1.9c0.2,1.1-1.2,1.4-1.4,2.9c-0.2,1.3,0.8,1.6,0.9,3.6
		C22.3,43.3,21.7,44.5,21.8,44.6z"/>
	<path id="XMLID_77_" class="st0" d="M33,41.8c0.1,0,0.1-0.7-0.3-3.5c-1.4-1.2-1.7-2.2-1.8-3c-0.1-1.2,0.5-1.8,0.1-2.8
		c-0.3-0.7-1-1.4-1.9-1.5c-1.3-0.2-2.6,1-2.4,1.4c0.1,0.5,1.7-0.1,2.5,0.8c0.7,0.8-0.3,1.8,0.2,3.2c0.5,1.2,1.5,1,2.6,2.6
		C32.8,40.5,32.9,41.9,33,41.8z"/>
	<path id="XMLID_78_" class="st0" d="M41.3,33.9c0.1-0.1-0.3-0.6-2-2.8c-1.8-0.3-2.6-1.1-3.1-1.7c-0.7-1-0.5-1.8-1.4-2.5
		c-0.6-0.5-1.6-0.7-2.4-0.3c-1.2,0.5-1.7,2.1-1.4,2.4c0.4,0.3,1.5-1,2.5-0.5c1,0.4,0.6,1.7,1.8,2.7c1,0.8,1.8,0.1,3.6,1
		C40.5,32.8,41.2,34,41.3,33.9z"/>
	<path id="XMLID_79_" class="st0" d="M44.6,22.8c0-0.1-0.5-0.4-3.2-1.4c-1.7,0.6-2.8,0.4-3.5,0.1c-1.1-0.5-1.3-1.3-2.4-1.5
		c-0.8-0.1-1.7,0.2-2.2,0.9c-0.8,1.1-0.5,2.7,0,2.8s0.8-1.6,1.9-1.7c1.1-0.2,1.4,1.2,2.9,1.4c1.3,0.2,1.6-0.8,3.6-0.9
		C43.3,22.3,44.5,22.9,44.6,22.8z"/>
	<path id="XMLID_80_" class="st0" d="M41.8,11.6c0-0.1-0.7-0.1-3.5,0.3c-1.2,1.4-2.2,1.7-3,1.8c-1.2,0.1-1.8-0.5-2.8-0.1
		c-0.7,0.3-1.4,1-1.5,1.9c-0.2,1.3,1,2.6,1.4,2.4c0.5-0.1-0.1-1.7,0.8-2.5c0.8-0.7,1.8,0.3,3.2-0.2c1.2-0.5,1-1.5,2.6-2.6
		C40.5,11.8,41.9,11.7,41.8,11.6z"/>
	<path id="XMLID_81_" class="st0" d="M33.9,3.3c-0.1-0.1-0.6,0.3-2.8,2c-0.3,1.8-1.1,2.6-1.7,3.1c-1,0.7-1.8,0.5-2.5,1.4
		c-0.5,0.6-0.7,1.6-0.3,2.4c0.5,1.2,2.1,1.7,2.4,1.4c0.3-0.4-1-1.5-0.5-2.5c0.4-1,1.7-0.6,2.7-1.8c0.8-1,0.1-1.8,1-3.6
		C32.8,4.1,34,3.4,33.9,3.3z"/>
</g>
</svg>
