<?xml version="1.0" encoding="utf-8"?>
<!-- Generator: Adobe Illustrator 19.0.0, SVG Export Plug-In . SVG Version: 6.00 Build 0)  -->
<svg version="1.1" id="Layer_1" xmlns="http://www.w3.org/2000/svg" xmlns:xlink="http://www.w3.org/1999/xlink" x="0px" y="0px"
	 viewBox="0 0 100 100" style="enable-background:new 0 0 100 100;" xml:space="preserve">
<style type="text/css">
	.st0{fill:#FFA500;}
	.st1{font-family:'MyriadPro-Regular';}
	.st2{font-size:12px;}
	.st3{fill:#FFFB3F;}
</style>
<g id="XMLID_76_">
	<text id="drizzle_2_" transform="matrix(1 0 0 1 27.2966 13.5852)" class="st0 st1 st2">Clear Sky</text>
</g>
<g id="XMLID_4_">
	<g id="XMLID_69_">
		<path id="XMLID_67_" class="st3" d="M53,38.1c6.5,1.3,10.8,7.6,9.5,14.1S54.9,63,48.4,61.7c1-0.8,5.8-4.4,7-11.2
			C56.6,44.1,53.8,39.2,53,38.1z"/>
	</g>
	<polygon id="XMLID_1_" class="st3" points="38.9,48.2 39.5,49.3 40.7,49.4 39.8,50.3 40,51.5 38.9,50.9 37.9,51.5 38.1,50.3
		37.2,49.4 38.4,49.3 	"/>
	<polygon id="XMLID_2_" class="st3" points="43.1,60.8 43.3,61.2 43.8,61.3 43.5,61.6 43.5,62.1 43.1,61.9 42.7,62.1 42.8,61.6
		42.4,61.3 42.9,61.2 	"/>
	<polygon id="XMLID_3_" class="st3" points="44.4,52.8 44.9,53.9 46.1,54.1 45.3,55 45.5,56.2 44.4,55.6 43.3,56.2 43.5,55
		42.7,54.1 43.9,53.9 	"/>
</g>
</svg>
