<?xml version="1.0" encoding="utf-8"?>
<!-- Generator: Adobe Illustrator 19.0.0, SVG Export Plug-In . SVG Version: 6.00 Build 0)  -->
<svg version="1.1" id="Layer_1" xmlns="http://www.w3.org/2000/svg" xmlns:xlink="http://www.w3.org/1999/xlink" x="0px" y="0px"
	 viewBox="0 0 25.5 24" style="enable-background:new 0 0 25.5 24;" xml:space="preserve">
<style type="text/css">
	.st0{fill:#FFFB3F;}
</style>
<g id="XMLID_4_">
	<g id="XMLID_69_">
		<path id="XMLID_67_" class="st0" d="M15.8,0c6.5,1.3,10.8,7.6,9.5,14.1s-7.6,10.8-14.1,9.5c1-0.8,5.8-4.4,7-11.2
			C19.4,6,16.6,1.1,15.8,0z"/>
	</g>
	<polygon id="XMLID_1_" class="st0" points="1.7,10.1 2.3,11.2 3.5,11.3 2.6,12.2 2.8,13.4 1.7,12.8 0.7,13.4 0.9,12.2 0,11.3
		1.2,11.2 	"/>
	<polygon id="XMLID_2_" class="st0" points="5.9,22.7 6.1,23.1 6.6,23.2 6.3,23.5 6.3,24 5.9,23.8 5.5,24 5.6,23.5 5.2,23.2
		5.7,23.1 	"/>
	<polygon id="XMLID_3_" class="st0" points="7.2,14.7 7.7,15.8 8.9,16 8.1,16.9 8.3,18.1 7.2,17.5 6.1,18.1 6.3,16.9 5.5,16
		6.7,15.8 	"/>
</g>
</svg>
