<?xml version="1.0" encoding="utf-8"?>
<!-- Generator: Adobe Illustrator 19.0.0, SVG Export Plug-In . SVG Version: 6.00 Build 0)  -->
<svg version="1.1" id="Layer_1" xmlns="http://www.w3.org/2000/svg" xmlns:xlink="http://www.w3.org/1999/xlink" x="0px" y="0px"
	 viewBox="0 0 90.9 38" style="enable-background:new 0 0 90.9 38;" xml:space="preserve">
<style type="text/css">
	.st0{fill:#D6FFE7;stroke:#000000;stroke-miterlimit:10;}
	.st1{fill:none;stroke:#000000;stroke-miterlimit:10;}
</style>
<g id="XMLID_7_">
	<path id="XMLID_11_" class="st0" d="M84.8,37.5h-80c-0.9,0-1.9-0.2-2.8-0.9c-2.4-2-1.6-6.6-0.3-9.2C3.3,24.2,6,22.7,7,22.2
		c2.9-1.5,5.7-1.4,6.9-1.3c-0.3-1.2-0.7-3.3-0.1-5.9c0.2-1.1,1.1-5.1,4.6-7c3.2-1.8,7.4-1.2,10.8,1.3c1.3-4.7,4.9-8.2,9-8.7
		c5.7-0.7,12,4.3,12.6,12c4.5-4,10.9-4.4,15.4-1.3c3.5,2.5,5.4,6.9,4.9,11.5c1.2-0.7,5.1-2.7,9.9-1.7c1.2,0.2,5,1.1,7.4,4.6
		c1.9,2.9,3.1,7.8,0.5,10.4C87.6,37.3,85.8,37.5,84.8,37.5z"/>
	<path id="XMLID_10_" class="st1" d="M24.7,24.8c0.4-2.5,1.6-4.9,3.5-6.5c1.9-1.6,4.7-2.4,7.1-1.8c2.5,0.6,4.6,2.6,5.1,5.1"/>
	<path id="XMLID_9_" class="st1" d="M48.4,27.2c0.9-3.6,4-6.5,7.6-7.1s7.5,1,9.6,4.1"/>
</g>
</svg>
