<?xml version="1.0" encoding="utf-8"?>
<!-- Generator: Adobe Illustrator 19.0.0, SVG Export Plug-In . SVG Version: 6.00 Build 0)  -->
<svg version="1.1" id="Layer_1" xmlns="http://www.w3.org/2000/svg" xmlns:xlink="http://www.w3.org/1999/xlink" x="0px" y="0px"
	 viewBox="0 0 90.9 55.2" style="enable-background:new 0 0 90.9 55.2;" xml:space="preserve">
<style type="text/css">
	.st0{fill:#D6FFE7;stroke:#000000;stroke-miterlimit:10;}
	.st1{fill:none;stroke:#000000;stroke-miterlimit:10;}
	.st2{fill:#99FFF4;stroke:#99EFFF;stroke-width:0.1556;stroke-miterlimit:10;}
	.st3{fill:#AAFFF8;stroke:#99EFFF;stroke-width:0.1556;stroke-miterlimit:10;}
	.st4{fill:#A2FFF5;stroke:#99EFFF;stroke-width:0.1556;stroke-miterlimit:10;}
	.st5{fill:#C5FAFF;stroke:#99EFFF;stroke-width:0.1556;stroke-miterlimit:10;}
	.st6{fill:#A5E1FF;stroke:#99EFFF;stroke-width:0.1556;stroke-miterlimit:10;}
	.st7{fill:#C2E4FF;stroke:#99EFFF;stroke-width:0.1556;stroke-miterlimit:10;}
	.st8{fill:#B9FFF9;stroke:#99EFFF;stroke-width:0.1556;stroke-miterlimit:10;}
	.st9{fill:#82E5FF;stroke:#99EFFF;stroke-width:0.1556;stroke-miterlimit:10;}
	.st10{fill:#C2FFEF;stroke:#99EFFF;stroke-width:0.1556;stroke-miterlimit:10;}
</style>
<g id="XMLID_7_">
	<path id="XMLID_11_" class="st0" d="M84.8,37.6h-80c-0.9,0-1.9-0.2-2.8-1c-2.4-2-1.6-6.6-0.3-9.2C3.3,24.2,6,22.7,7,22.2
		c2.9-1.5,5.7-1.4,6.9-1.3c-0.3-1.2-0.7-3.3-0.1-5.9c0.2-1.1,1.1-5.1,4.6-7c3.2-1.8,7.4-1.2,10.8,1.3c1.3-4.7,4.9-8.2,9-8.7
		c5.7-0.7,12,4.3,12.6,12c4.5-4,10.9-4.4,15.4-1.3c3.5,2.5,5.4,6.9,4.9,11.5c1.2-0.7,5.1-2.7,9.9-1.7c1.2,0.2,5,1.1,7.4,4.6
		c1.9,2.9,3.1,7.9,0.5,10.4C87.6,37.3,85.8,37.6,84.8,37.6z"/>
	<path id="XMLID_10_" class="st1" d="M24.7,24.8c0.4-2.5,1.6-4.9,3.5-6.5c1.9-1.6,4.7-2.4,7.1-1.8c2.5,0.6,4.6,2.6,5.1,5.1"/>
	<path id="XMLID_9_" class="st1" d="M48.4,27.2c0.9-3.6,4-6.5,7.6-7.1s7.5,1,9.6,4.1"/>
	<path id="XMLID_28_" class="st2" d="M14.3,45.4c-0.1,0.4-0.4,0.9-0.9,0.9c-0.4,0-0.8-0.5-0.8-0.9c-0.1-0.4,0.2-0.7,0.5-1.3
		c0.1-0.3,0.3-0.9,0.4-1.6c0.1,0.7,0.3,1.2,0.5,1.6C14.2,44.7,14.4,45,14.3,45.4z"/>
	<path id="XMLID_27_" class="st3" d="M29.3,45.4c-0.1,0.4-0.4,0.9-0.9,0.9c-0.4,0-0.8-0.5-0.8-0.9c-0.1-0.4,0.2-0.7,0.5-1.3
		c0.1-0.3,0.3-0.9,0.4-1.6c0.1,0.7,0.3,1.2,0.5,1.6C29.2,44.7,29.4,45,29.3,45.4z"/>
	<path id="XMLID_26_" class="st4" d="M44.3,45.4c-0.1,0.4-0.4,0.9-0.9,0.9c-0.4,0-0.8-0.5-0.8-0.9c-0.1-0.4,0.2-0.7,0.5-1.3
		c0.1-0.3,0.3-0.9,0.4-1.6c0.1,0.7,0.3,1.2,0.5,1.6C44.2,44.7,44.4,45,44.3,45.4z"/>
	<path id="XMLID_25_" class="st5" d="M59.3,45.4c-0.1,0.4-0.4,0.9-0.9,0.9c-0.4,0-0.8-0.5-0.8-0.9c-0.1-0.4,0.2-0.7,0.5-1.3
		c0.1-0.3,0.3-0.9,0.4-1.6c0.1,0.7,0.3,1.2,0.5,1.6C59.2,44.7,59.4,45,59.3,45.4z"/>
	<path id="XMLID_24_" class="st6" d="M74.3,45.4c-0.1,0.4-0.4,0.9-0.9,0.9c-0.4,0-0.8-0.5-0.8-0.9c-0.1-0.4,0.2-0.7,0.5-1.3
		c0.1-0.3,0.3-0.9,0.4-1.6c0.1,0.7,0.3,1.2,0.5,1.6C74.2,44.7,74.4,45,74.3,45.4z"/>
	<path id="XMLID_23_" class="st7" d="M21.6,54.1c-0.1,0.4-0.4,0.9-0.9,0.9c-0.4,0-0.8-0.5-0.8-0.9c-0.1-0.4,0.2-0.7,0.5-1.3
		c0.1-0.3,0.3-0.9,0.4-1.6c0.1,0.7,0.3,1.2,0.5,1.6C21.5,53.4,21.7,53.7,21.6,54.1z"/>
	<path id="XMLID_22_" class="st8" d="M36.6,54.1c-0.1,0.4-0.4,0.9-0.9,0.9c-0.4,0-0.8-0.5-0.8-0.9c-0.1-0.4,0.2-0.7,0.5-1.3
		c0.1-0.3,0.3-0.9,0.4-1.6c0.1,0.7,0.3,1.2,0.5,1.6C36.5,53.4,36.7,53.7,36.6,54.1z"/>
	<path id="XMLID_21_" class="st9" d="M51.8,54.3c-0.1,0.4-0.4,0.9-0.9,0.9c-0.4,0-0.8-0.5-0.8-0.9c-0.1-0.4,0.2-0.7,0.5-1.3
		c0.1-0.3,0.3-0.9,0.4-1.6c0.1,0.7,0.3,1.2,0.5,1.6C51.7,53.7,51.9,53.9,51.8,54.3z"/>
	<path id="XMLID_20_" class="st10" d="M66.8,54.3c-0.1,0.4-0.4,0.9-0.9,0.9c-0.4,0-0.8-0.5-0.8-0.9c-0.1-0.4,0.2-0.7,0.5-1.3
		c0.1-0.3,0.3-0.9,0.4-1.6c0.1,0.7,0.3,1.2,0.5,1.6C66.7,53.7,66.9,53.9,66.8,54.3z"/>
</g>
</svg>
