<?xml version="1.0" encoding="utf-8"?>
<!-- Generator: Adobe Illustrator 19.0.0, SVG Export Plug-In . SVG Version: 6.00 Build 0)  -->
<svg version="1.1" id="Layer_1" xmlns="http://www.w3.org/2000/svg" xmlns:xlink="http://www.w3.org/1999/xlink" x="0px" y="0px"
	 viewBox="0 0 90.7 64.9" style="enable-background:new 0 0 90.7 64.9;" xml:space="preserve">
<style type="text/css">
	.st0{fill:#C5E3EA;stroke:#000000;stroke-miterlimit:10;}
	.st1{fill:none;stroke:#000000;stroke-miterlimit:10;}
	.st2{fill:#F6FFFE;stroke:#B9F2FF;stroke-width:0.6614;stroke-miterlimit:10;}
</style>
<g>
	<g id="XMLID_42_">
		<path id="XMLID_46_" class="st0" d="M84.9,37.6h-80c-0.7-0.3-1.8-0.8-2.7-1.8c-2.3-2.6-1.9-6.6-0.8-9.1c1.5-3.5,4.7-5,5.5-5.3
			c3.3-1.4,6.2-0.7,7.1-0.5c-0.3-1.2-0.7-3.3-0.1-5.9c0.2-1.1,1.1-5.1,4.6-7c3.2-1.8,7.4-1.2,10.8,1.3c1.3-4.7,4.9-8.2,9-8.7
			c5.7-0.7,12,4.3,12.6,12c4.5-4,10.9-4.4,15.4-1.3c3.5,2.5,5.4,6.9,4.9,11.5c1.2-0.7,5.1-2.7,9.9-1.7c1.3,0.3,5.2,1.1,7.4,4.6
			c1.8,2.8,2.6,7.5,0.1,10.2C87.4,37,85.9,37.4,84.9,37.6z"/>
		<path id="XMLID_45_" class="st1" d="M24.8,24.8c0.4-2.5,1.6-4.9,3.5-6.5c1.9-1.6,4.7-2.4,7.1-1.8c2.5,0.6,4.6,2.6,5.1,5.1"/>
		<path id="XMLID_44_" class="st1" d="M48.5,27.2c0.9-3.6,4-6.5,7.6-7.1s7.5,1,9.6,4.1"/>
	</g>
	<circle id="XMLID_47_" class="st2" cx="12.4" cy="43.9" r="0.7"/>
	<circle id="XMLID_49_" class="st2" cx="27.4" cy="43.9" r="0.7"/>
	<circle id="XMLID_50_" class="st2" cx="42.4" cy="43.9" r="0.7"/>
	<circle id="XMLID_51_" class="st2" cx="57.4" cy="43.9" r="0.7"/>
	<circle id="XMLID_52_" class="st2" cx="72.4" cy="43.9" r="0.7"/>
	<circle id="XMLID_56_" class="st2" cx="19.4" cy="50.9" r="0.7"/>
	<circle id="XMLID_55_" class="st2" cx="34.4" cy="50.9" r="0.7"/>
	<circle id="XMLID_54_" class="st2" cx="49.4" cy="50.9" r="0.7"/>
	<circle id="XMLID_53_" class="st2" cx="64.4" cy="50.9" r="0.7"/>
	<circle id="XMLID_48_" class="st2" cx="79.4" cy="50.9" r="0.7"/>
	<circle id="XMLID_61_" class="st2" cx="12.4" cy="57.9" r="0.7"/>
	<circle id="XMLID_60_" class="st2" cx="27.4" cy="57.9" r="0.7"/>
	<circle id="XMLID_59_" class="st2" cx="42.4" cy="57.9" r="0.7"/>
	<circle id="XMLID_58_" class="st2" cx="57.4" cy="57.9" r="0.7"/>
	<circle id="XMLID_57_" class="st2" cx="72.4" cy="57.9" r="0.7"/>
	<circle id="XMLID_66_" class="st2" cx="19.4" cy="63.9" r="0.7"/>
	<circle id="XMLID_65_" class="st2" cx="34.4" cy="63.9" r="0.7"/>
	<circle id="XMLID_64_" class="st2" cx="49.4" cy="63.9" r="0.7"/>
	<circle id="XMLID_63_" class="st2" cx="64.4" cy="63.9" r="0.7"/>
	<circle id="XMLID_62_" class="st2" cx="79.4" cy="63.9" r="0.7"/>
</g>
</svg>
