<?xml version="1.0" encoding="utf-8"?>
<!-- Generator: Adobe Illustrator 19.0.0, SVG Export Plug-In . SVG Version: 6.00 Build 0)  -->
<svg version="1.1" id="Layer_1" xmlns="http://www.w3.org/2000/svg" xmlns:xlink="http://www.w3.org/1999/xlink" x="0px" y="0px"
	 viewBox="0 0 90.7 79.6" style="enable-background:new 0 0 90.7 79.6;" xml:space="preserve">
<style type="text/css">
	.st0{fill:#E8F000;stroke:#000000;stroke-miterlimit:10;}
	.st1{fill:#003342;stroke:#000000;stroke-miterlimit:10;}
	.st2{fill:none;stroke:#000000;stroke-miterlimit:10;}
</style>
<g id="XMLID_6_">
	<path id="XMLID_2_" class="st0" d="M28.7,55.5c-6.6,6.8-13.1,13.6-19.6,20.4c5.1-8.3,10.2-16.7,15.2-25c3.2-0.8,6.3-1.7,9.5-2.5
		c2-4.4,3.9-8.8,5.9-13.2c6.1,0,12.2,0,18.3,0c-6.3,6-12.6,12-18.9,18C35.7,53.9,32.2,54.7,28.7,55.5z"/>
	<path id="XMLID_1_" class="st1" d="M84.9,37.6h-80c-0.7-0.3-1.8-0.8-2.7-1.8c-2.3-2.6-1.9-6.6-0.8-9.1c1.5-3.5,4.7-5,5.5-5.3
		c3.3-1.4,6.2-0.7,7.1-0.5c-0.3-1.2-0.7-3.3-0.1-5.9c0.2-1.1,1.1-5.1,4.6-7c3.2-1.8,7.4-1.2,10.8,1.3c1.3-4.7,4.9-8.2,9-8.7
		c5.7-0.7,12,4.3,12.6,12c4.5-4,10.9-4.4,15.4-1.3c3.5,2.5,5.4,6.9,4.9,11.5c1.2-0.7,5.1-2.7,9.9-1.7c1.3,0.3,5.2,1.1,7.4,4.6
		c1.8,2.8,2.6,7.5,0.1,10.2C87.4,37,85.9,37.4,84.9,37.6z"/>
	<path id="XMLID_3_" class="st2" d="M24.8,24.8c0.4-2.5,1.6-4.9,3.5-6.5c1.9-1.6,4.7-2.4,7.1-1.8c2.5,0.6,4.6,2.6,5.1,5.1"/>
	<path id="XMLID_4_" class="st2" d="M48.5,27.2c0.9-3.6,4-6.5,7.6-7.1s7.5,1,9.6,4.1"/>
</g>
</svg>
