<?xml version="1.0" encoding="utf-8"?>
<!-- Generator: Adobe Illustrator 19.0.0, SVG Export Plug-In . SVG Version: 6.00 Build 0)  -->
<svg version="1.1" xmlns="http://www.w3.org/2000/svg" xmlns:xlink="http://www.w3.org/1999/xlink" x="0px" y="0px"
	 viewBox="0 0 100 100" style="enable-background:new 0 0 100 100;" xml:space="preserve">
<style type="text/css">
	.st0{fill:#E8F000;stroke:#000000;stroke-miterlimit:10;}
	.st1{fill:#003342;stroke:#000000;stroke-miterlimit:10;}
	.st2{fill:none;stroke:#000000;stroke-miterlimit:10;}
	.st3{fill:#FFA500;}
	.st4{font-family:'MyriadPro-Regular';}
	.st5{font-size:12px;}
	.st6{display:none;}
	.st7{display:inline;}
	.st8{fill:#C5E3EA;stroke:#000000;stroke-miterlimit:10;}
	.st9{display:inline;fill:#F6FFFE;stroke:#B9F2FF;stroke-width:0.6614;stroke-miterlimit:10;}
	.st10{fill:#D6FFE7;stroke:#000000;stroke-miterlimit:10;}
	.st11{fill:#99FFF4;stroke:#99EFFF;stroke-width:0.1556;stroke-miterlimit:10;}
	.st12{fill:#AAFFF8;stroke:#99EFFF;stroke-width:0.1556;stroke-miterlimit:10;}
	.st13{fill:#A2FFF5;stroke:#99EFFF;stroke-width:0.1556;stroke-miterlimit:10;}
	.st14{fill:#C5FAFF;stroke:#99EFFF;stroke-width:0.1556;stroke-miterlimit:10;}
	.st15{fill:#A5E1FF;stroke:#99EFFF;stroke-width:0.1556;stroke-miterlimit:10;}
	.st16{fill:#C2E4FF;stroke:#99EFFF;stroke-width:0.1556;stroke-miterlimit:10;}
	.st17{fill:#B9FFF9;stroke:#99EFFF;stroke-width:0.1556;stroke-miterlimit:10;}
	.st18{fill:#82E5FF;stroke:#99EFFF;stroke-width:0.1556;stroke-miterlimit:10;}
	.st19{fill:#C2FFEF;stroke:#99EFFF;stroke-width:0.1556;stroke-miterlimit:10;}
	.st20{fill:url(#XMLID_68_);stroke:#000000;stroke-miterlimit:10;}
	.st21{display:inline;fill:#99FFF4;stroke:#99EFFF;stroke-width:0.1556;stroke-miterlimit:10;}
	.st22{display:inline;fill:#AAFFF8;stroke:#99EFFF;stroke-width:0.1556;stroke-miterlimit:10;}
	.st23{display:inline;fill:#A2FFF5;stroke:#99EFFF;stroke-width:0.1556;stroke-miterlimit:10;}
	.st24{display:inline;fill:#C2E4FF;stroke:#99EFFF;stroke-width:0.1556;stroke-miterlimit:10;}
	.st25{display:inline;fill:#A5E1FF;stroke:#99EFFF;stroke-width:0.1556;stroke-miterlimit:10;}
	.st26{display:inline;fill:#B9FFF9;stroke:#99EFFF;stroke-width:0.1556;stroke-miterlimit:10;}
	.st27{display:inline;fill:#82E5FF;stroke:#99EFFF;stroke-width:0.1556;stroke-miterlimit:10;}
	.st28{display:inline;fill:#C2FFEF;stroke:#99EFFF;stroke-width:0.1556;stroke-miterlimit:10;}
</style>
<g id="ThunderStorm">
	<g id="XMLID_6_">
		<path id="XMLID_2_" class="st0" d="M33.1,72.4C26.5,79.2,20,86,13.5,92.8c5.1-8.3,10.2-16.7,15.2-25c3.2-0.8,6.3-1.7,9.5-2.5
			c2-4.4,3.9-8.8,5.9-13.2c6.1,0,12.2,0,18.3,0c-6.3,6-12.6,12-18.9,18C40.1,70.8,36.6,71.6,33.1,72.4z"/>
		<path id="XMLID_1_" class="st1" d="M89.3,54.5h-80c-0.7-0.3-1.8-0.8-2.7-1.8c-2.3-2.6-1.9-6.6-0.8-9.1c1.5-3.5,4.7-5,5.5-5.3
			c3.3-1.4,6.2-0.7,7.1-0.5c-0.3-1.2-0.7-3.3-0.1-5.9c0.2-1.1,1.1-5.1,4.6-7c3.2-1.8,7.4-1.2,10.8,1.3c1.3-4.7,4.9-8.2,9-8.7
			c5.7-0.7,12,4.3,12.6,12c4.5-4,10.9-4.4,15.4-1.3c3.5,2.5,5.4,6.9,4.9,11.5c1.2-0.7,5.1-2.7,9.9-1.7c1.3,0.3,5.2,1.1,7.4,4.6
			c1.8,2.8,2.6,7.5,0.1,10.2C91.8,53.9,90.3,54.3,89.3,54.5z"/>
		<path id="XMLID_3_" class="st2" d="M29.2,41.7c0.4-2.5,1.6-4.9,3.5-6.5c1.9-1.6,4.7-2.4,7.1-1.8c2.5,0.6,4.6,2.6,5.1,5.1"/>
		<path id="XMLID_4_" class="st2" d="M52.9,44.1c0.9-3.6,4-6.5,7.6-7.1c3.6-0.6,7.5,1,9.6,4.1"/>
		<text id="XMLID_5_" transform="matrix(1 0 0 1 13.4804 13.5851)" class="st3 st4 st5">Thunderstorm</text>
	</g>
</g>
<g id="Snow" class="st6">
	<g id="XMLID_42_" class="st7">
		<path id="XMLID_46_" class="st8" d="M89.3,54.5h-80c-0.7-0.3-1.8-0.8-2.7-1.8c-2.3-2.6-1.9-6.6-0.8-9.1c1.5-3.5,4.7-5,5.5-5.3
			c3.3-1.4,6.2-0.7,7.1-0.5c-0.3-1.2-0.7-3.3-0.1-5.9c0.2-1.1,1.1-5.1,4.6-7c3.2-1.8,7.4-1.2,10.8,1.3c1.3-4.7,4.9-8.2,9-8.7
			c5.7-0.7,12,4.3,12.6,12c4.5-4,10.9-4.4,15.4-1.3c3.5,2.5,5.4,6.9,4.9,11.5c1.2-0.7,5.1-2.7,9.9-1.7c1.3,0.3,5.2,1.1,7.4,4.6
			c1.8,2.8,2.6,7.5,0.1,10.2C91.8,53.9,90.3,54.3,89.3,54.5z"/>
		<path id="XMLID_45_" class="st2" d="M29.2,41.7c0.4-2.5,1.6-4.9,3.5-6.5c1.9-1.6,4.7-2.4,7.1-1.8c2.5,0.6,4.6,2.6,5.1,5.1"/>
		<path id="XMLID_44_" class="st2" d="M52.9,44.1c0.9-3.6,4-6.5,7.6-7.1c3.6-0.6,7.5,1,9.6,4.1"/>
		<text id="XMLID_43_" transform="matrix(1 0 0 1 36.0439 13.5851)" class="st3 st4 st5">Snow</text>
	</g>
	<circle id="XMLID_47_" class="st9" cx="16.8" cy="60.8" r="0.7"/>
	<circle id="XMLID_49_" class="st9" cx="31.8" cy="60.8" r="0.7"/>
	<circle id="XMLID_50_" class="st9" cx="46.8" cy="60.8" r="0.7"/>
	<circle id="XMLID_51_" class="st9" cx="61.8" cy="60.8" r="0.7"/>
	<circle id="XMLID_52_" class="st9" cx="76.8" cy="60.8" r="0.7"/>
	<circle id="XMLID_56_" class="st9" cx="23.8" cy="67.8" r="0.7"/>
	<circle id="XMLID_55_" class="st9" cx="38.8" cy="67.8" r="0.7"/>
	<circle id="XMLID_54_" class="st9" cx="53.8" cy="67.8" r="0.7"/>
	<circle id="XMLID_53_" class="st9" cx="68.8" cy="67.8" r="0.7"/>
	<circle id="XMLID_48_" class="st9" cx="83.8" cy="67.8" r="0.7"/>
	<circle id="XMLID_61_" class="st9" cx="16.8" cy="74.8" r="0.7"/>
	<circle id="XMLID_60_" class="st9" cx="31.8" cy="74.8" r="0.7"/>
	<circle id="XMLID_59_" class="st9" cx="46.8" cy="74.8" r="0.7"/>
	<circle id="XMLID_58_" class="st9" cx="61.8" cy="74.8" r="0.7"/>
	<circle id="XMLID_57_" class="st9" cx="76.8" cy="74.8" r="0.7"/>
	<circle id="XMLID_66_" class="st9" cx="23.8" cy="80.8" r="0.7"/>
	<circle id="XMLID_65_" class="st9" cx="38.8" cy="80.8" r="0.7"/>
	<circle id="XMLID_64_" class="st9" cx="53.8" cy="80.8" r="0.7"/>
	<circle id="XMLID_63_" class="st9" cx="68.8" cy="80.8" r="0.7"/>
	<circle id="XMLID_62_" class="st9" cx="83.8" cy="80.8" r="0.7"/>
</g>
<g id="Drizzle" class="st6">
	<g id="XMLID_7_" class="st7">
		<path id="XMLID_11_" class="st10" d="M89.3,54.5h-80c-0.9,0-1.9-0.2-2.8-1c-2.4-2-1.6-6.6-0.3-9.2c1.6-3.2,4.3-4.7,5.3-5.2
			c2.9-1.5,5.7-1.4,6.9-1.3c-0.3-1.2-0.7-3.3-0.1-5.9c0.2-1.1,1.1-5.1,4.6-7c3.2-1.8,7.4-1.2,10.8,1.3c1.3-4.7,4.9-8.2,9-8.7
			c5.7-0.7,12,4.3,12.6,12c4.5-4,10.9-4.4,15.4-1.3c3.5,2.5,5.4,6.9,4.9,11.5c1.2-0.7,5.1-2.7,9.9-1.7c1.2,0.2,5,1.1,7.4,4.6
			c1.9,2.9,3.1,7.9,0.5,10.4C92.1,54.2,90.3,54.5,89.3,54.5z"/>
		<path id="XMLID_10_" class="st2" d="M29.2,41.7c0.4-2.5,1.6-4.9,3.5-6.5c1.9-1.6,4.7-2.4,7.1-1.8c2.5,0.6,4.6,2.6,5.1,5.1"/>
		<path id="XMLID_9_" class="st2" d="M52.9,44.1c0.9-3.6,4-6.5,7.6-7.1c3.6-0.6,7.5,1,9.6,4.1"/>
		<text id="drizzle" transform="matrix(1 0 0 1 33.0561 13.5851)" class="st3 st4 st5">Drizzle</text>
		<path id="XMLID_28_" class="st11" d="M18.8,62.3c-0.1,0.4-0.4,0.9-0.9,0.9c-0.4,0-0.8-0.5-0.8-0.9c-0.1-0.4,0.2-0.7,0.5-1.3
			c0.1-0.3,0.3-0.9,0.4-1.6c0.1,0.7,0.3,1.2,0.5,1.6C18.7,61.6,18.9,61.9,18.8,62.3z"/>
		<path id="XMLID_27_" class="st12" d="M33.8,62.3c-0.1,0.4-0.4,0.9-0.9,0.9c-0.4,0-0.8-0.5-0.8-0.9c-0.1-0.4,0.2-0.7,0.5-1.3
			c0.1-0.3,0.3-0.9,0.4-1.6c0.1,0.7,0.3,1.2,0.5,1.6C33.7,61.6,33.9,61.9,33.8,62.3z"/>
		<path id="XMLID_26_" class="st13" d="M48.8,62.3c-0.1,0.4-0.4,0.9-0.9,0.9c-0.4,0-0.8-0.5-0.8-0.9c-0.1-0.4,0.2-0.7,0.5-1.3
			c0.1-0.3,0.3-0.9,0.4-1.6c0.1,0.7,0.3,1.2,0.5,1.6C48.7,61.6,48.9,61.9,48.8,62.3z"/>
		<path id="XMLID_25_" class="st14" d="M63.8,62.3c-0.1,0.4-0.4,0.9-0.9,0.9c-0.4,0-0.8-0.5-0.8-0.9c-0.1-0.4,0.2-0.7,0.5-1.3
			c0.1-0.3,0.3-0.9,0.4-1.6c0.1,0.7,0.3,1.2,0.5,1.6C63.7,61.6,63.9,61.9,63.8,62.3z"/>
		<path id="XMLID_24_" class="st15" d="M78.8,62.3c-0.1,0.4-0.4,0.9-0.9,0.9c-0.4,0-0.8-0.5-0.8-0.9c-0.1-0.4,0.2-0.7,0.5-1.3
			c0.1-0.3,0.3-0.9,0.4-1.6c0.1,0.7,0.3,1.2,0.5,1.6C78.7,61.6,78.9,61.9,78.8,62.3z"/>
		<path id="XMLID_23_" class="st16" d="M26.1,71c-0.1,0.4-0.4,0.9-0.9,0.9c-0.4,0-0.8-0.5-0.8-0.9c-0.1-0.4,0.2-0.7,0.5-1.3
			c0.1-0.3,0.3-0.9,0.4-1.6c0.1,0.7,0.3,1.2,0.5,1.6C26,70.3,26.2,70.6,26.1,71z"/>
		<path id="XMLID_22_" class="st17" d="M41.1,71c-0.1,0.4-0.4,0.9-0.9,0.9c-0.4,0-0.8-0.5-0.8-0.9c-0.1-0.4,0.2-0.7,0.5-1.3
			c0.1-0.3,0.3-0.9,0.4-1.6c0.1,0.7,0.3,1.2,0.5,1.6C41,70.3,41.2,70.6,41.1,71z"/>
		<path id="XMLID_21_" class="st18" d="M56.3,71.2c-0.1,0.4-0.4,0.9-0.9,0.9c-0.4,0-0.8-0.5-0.8-0.9c-0.1-0.4,0.2-0.7,0.5-1.3
			c0.1-0.3,0.3-0.9,0.4-1.6c0.1,0.7,0.3,1.2,0.5,1.6C56.2,70.6,56.4,70.8,56.3,71.2z"/>
		<path id="XMLID_20_" class="st19" d="M71.3,71.2c-0.1,0.4-0.4,0.9-0.9,0.9c-0.4,0-0.8-0.5-0.8-0.9c-0.1-0.4,0.2-0.7,0.5-1.3
			c0.1-0.3,0.3-0.9,0.4-1.6c0.1,0.7,0.3,1.2,0.5,1.6C71.2,70.6,71.4,70.8,71.3,71.2z"/>
	</g>
</g>
<g id="Rain" class="st6">
	<g id="XMLID_29_" class="st7">
		<linearGradient id="XMLID_68_" gradientUnits="userSpaceOnUse" x1="49.9219" y1="17.329" x2="49.9219" y2="54.5">
			<stop  offset="0" style="stop-color:#6AECFF"/>
			<stop  offset="1" style="stop-color:#000000"/>
		</linearGradient>
		<path id="XMLID_41_" class="st20" d="M89.3,54.5h-80c-0.9,0-1.9-0.2-2.8-1c-2.4-2-1.6-6.6-0.3-9.2c1.6-3.2,4.3-4.7,5.3-5.2
			c2.9-1.5,5.7-1.4,6.9-1.3c-0.3-1.2-0.7-3.3-0.1-5.9c0.2-1.1,1.1-5.1,4.6-7c3.2-1.8,7.4-1.2,10.8,1.3c1.3-4.7,4.9-8.2,9-8.7
			c5.7-0.7,12,4.3,12.6,12c4.5-4,10.9-4.4,15.4-1.3c3.5,2.5,5.4,6.9,4.9,11.5c1.2-0.7,5.1-2.7,9.9-1.7c1.2,0.2,5,1.1,7.4,4.6
			c1.9,2.9,3.1,7.9,0.5,10.4C92.1,54.2,90.3,54.5,89.3,54.5z"/>
		<path id="XMLID_40_" class="st2" d="M29.2,41.7c0.4-2.5,1.6-4.9,3.5-6.5c1.9-1.6,4.7-2.4,7.1-1.8c2.5,0.6,4.6,2.6,5.1,5.1"/>
		<path id="XMLID_39_" class="st2" d="M52.9,44.1c0.9-3.6,4-6.5,7.6-7.1c3.6-0.6,7.5,1,9.6,4.1"/>
		<text id="drizzle_1_" transform="matrix(1 0 0 1 39.0744 13.5851)" class="st3 st4 st5">Rain</text>
		<path id="XMLID_38_" class="st11" d="M18.8,62.3c-0.1,0.4-0.4,0.9-0.9,0.9c-0.4,0-0.8-0.5-0.8-0.9c-0.1-0.4,0.2-0.7,0.5-1.3
			c0.1-0.3,0.3-0.9,0.4-1.6c0.1,0.7,0.3,1.2,0.5,1.6C18.7,61.6,18.9,61.9,18.8,62.3z"/>
		<path id="XMLID_37_" class="st12" d="M33.8,62.3c-0.1,0.4-0.4,0.9-0.9,0.9c-0.4,0-0.8-0.5-0.8-0.9c-0.1-0.4,0.2-0.7,0.5-1.3
			c0.1-0.3,0.3-0.9,0.4-1.6c0.1,0.7,0.3,1.2,0.5,1.6C33.7,61.6,33.9,61.9,33.8,62.3z"/>
		<path id="XMLID_36_" class="st13" d="M48.8,62.3c-0.1,0.4-0.4,0.9-0.9,0.9c-0.4,0-0.8-0.5-0.8-0.9c-0.1-0.4,0.2-0.7,0.5-1.3
			c0.1-0.3,0.3-0.9,0.4-1.6c0.1,0.7,0.3,1.2,0.5,1.6C48.7,61.6,48.9,61.9,48.8,62.3z"/>
		<path id="XMLID_35_" class="st16" d="M63.8,62.3c-0.1,0.4-0.4,0.9-0.9,0.9c-0.4,0-0.8-0.5-0.8-0.9c-0.1-0.4,0.2-0.7,0.5-1.3
			c0.1-0.3,0.3-0.9,0.4-1.6c0.1,0.7,0.3,1.2,0.5,1.6C63.7,61.6,63.9,61.9,63.8,62.3z"/>
		<path id="XMLID_34_" class="st15" d="M78.8,62.3c-0.1,0.4-0.4,0.9-0.9,0.9c-0.4,0-0.8-0.5-0.8-0.9c-0.1-0.4,0.2-0.7,0.5-1.3
			c0.1-0.3,0.3-0.9,0.4-1.6c0.1,0.7,0.3,1.2,0.5,1.6C78.7,61.6,78.9,61.9,78.8,62.3z"/>
		<path id="XMLID_33_" class="st16" d="M26.1,71c-0.1,0.4-0.4,0.9-0.9,0.9c-0.4,0-0.8-0.5-0.8-0.9c-0.1-0.4,0.2-0.7,0.5-1.3
			c0.1-0.3,0.3-0.9,0.4-1.6c0.1,0.7,0.3,1.2,0.5,1.6C26,70.3,26.2,70.6,26.1,71z"/>
		<path id="XMLID_32_" class="st17" d="M41.1,71c-0.1,0.4-0.4,0.9-0.9,0.9c-0.4,0-0.8-0.5-0.8-0.9c-0.1-0.4,0.2-0.7,0.5-1.3
			c0.1-0.3,0.3-0.9,0.4-1.6c0.1,0.7,0.3,1.2,0.5,1.6C41,70.3,41.2,70.6,41.1,71z"/>
		<path id="XMLID_31_" class="st18" d="M56.3,71.2c-0.1,0.4-0.4,0.9-0.9,0.9c-0.4,0-0.8-0.5-0.8-0.9c-0.1-0.4,0.2-0.7,0.5-1.3
			c0.1-0.3,0.3-0.9,0.4-1.6c0.1,0.7,0.3,1.2,0.5,1.6C56.2,70.6,56.4,70.8,56.3,71.2z"/>
		<path id="XMLID_30_" class="st19" d="M71.3,71.2c-0.1,0.4-0.4,0.9-0.9,0.9c-0.4,0-0.8-0.5-0.8-0.9c-0.1-0.4,0.2-0.7,0.5-1.3
			c0.1-0.3,0.3-0.9,0.4-1.6c0.1,0.7,0.3,1.2,0.5,1.6C71.2,70.6,71.4,70.8,71.3,71.2z"/>
	</g>
	<path id="XMLID_19_" class="st21" d="M19.8,78.3c-0.1,0.4-0.4,0.9-0.9,0.9c-0.4,0-0.8-0.5-0.8-0.9c-0.1-0.4,0.2-0.7,0.5-1.3
		c0.1-0.3,0.3-0.9,0.4-1.6c0.1,0.7,0.3,1.2,0.5,1.6C19.7,77.6,19.9,77.9,19.8,78.3z"/>
	<path id="XMLID_18_" class="st22" d="M34.8,78.3c-0.1,0.4-0.4,0.9-0.9,0.9c-0.4,0-0.8-0.5-0.8-0.9c-0.1-0.4,0.2-0.7,0.5-1.3
		c0.1-0.3,0.3-0.9,0.4-1.6c0.1,0.7,0.3,1.2,0.5,1.6C34.7,77.6,34.9,77.9,34.8,78.3z"/>
	<path id="XMLID_17_" class="st23" d="M49.8,78.3c-0.1,0.4-0.4,0.9-0.9,0.9c-0.4,0-0.8-0.5-0.8-0.9c-0.1-0.4,0.2-0.7,0.5-1.3
		c0.1-0.3,0.3-0.9,0.4-1.6c0.1,0.7,0.3,1.2,0.5,1.6C49.7,77.6,49.9,77.9,49.8,78.3z"/>
	<path id="XMLID_16_" class="st24" d="M64.8,78.3c-0.1,0.4-0.4,0.9-0.9,0.9c-0.4,0-0.8-0.5-0.8-0.9c-0.1-0.4,0.2-0.7,0.5-1.3
		c0.1-0.3,0.3-0.9,0.4-1.6c0.1,0.7,0.3,1.2,0.5,1.6C64.7,77.6,64.9,77.9,64.8,78.3z"/>
	<path id="XMLID_15_" class="st25" d="M79.8,78.3c-0.1,0.4-0.4,0.9-0.9,0.9c-0.4,0-0.8-0.5-0.8-0.9c-0.1-0.4,0.2-0.7,0.5-1.3
		c0.1-0.3,0.3-0.9,0.4-1.6c0.1,0.7,0.3,1.2,0.5,1.6C79.7,77.6,79.9,77.9,79.8,78.3z"/>
	<path id="XMLID_14_" class="st24" d="M27.1,87c-0.1,0.4-0.4,0.9-0.9,0.9c-0.4,0-0.8-0.5-0.8-0.9c-0.1-0.4,0.2-0.7,0.5-1.3
		c0.1-0.3,0.3-0.9,0.4-1.6c0.1,0.7,0.3,1.2,0.5,1.6C27,86.3,27.2,86.6,27.1,87z"/>
	<path id="XMLID_13_" class="st26" d="M42.1,87c-0.1,0.4-0.4,0.9-0.9,0.9c-0.4,0-0.8-0.5-0.8-0.9c-0.1-0.4,0.2-0.7,0.5-1.3
		c0.1-0.3,0.3-0.9,0.4-1.6c0.1,0.7,0.3,1.2,0.5,1.6C42,86.3,42.2,86.6,42.1,87z"/>
	<path id="XMLID_12_" class="st27" d="M57.3,87.2c-0.1,0.4-0.4,0.9-0.9,0.9c-0.4,0-0.8-0.5-0.8-0.9c-0.1-0.4,0.2-0.7,0.5-1.3
		c0.1-0.3,0.3-0.9,0.4-1.6c0.1,0.7,0.3,1.2,0.5,1.6C57.2,86.6,57.4,86.8,57.3,87.2z"/>
	<path id="XMLID_8_" class="st28" d="M72.3,87.2c-0.1,0.4-0.4,0.9-0.9,0.9c-0.4,0-0.8-0.5-0.8-0.9c-0.1-0.4,0.2-0.7,0.5-1.3
		c0.1-0.3,0.3-0.9,0.4-1.6c0.1,0.7,0.3,1.2,0.5,1.6C72.2,86.6,72.4,86.8,72.3,87.2z"/>
</g>
</svg>
